<svg width="650" height="118" viewBox="0 0 650 118" fill="none" xmlns="http://www.w3.org/2000/svg">
<circle cx="50" cy="56" r="50" fill="#4C00FF"/>
<path d="M34.632 88.6C32.8827 88.6 31.56 88.2587 30.664 87.576C29.768 86.8933 29.384 86.1253 29.512 85.272C29.64 84.504 29.96 83.9067 30.472 83.48C30.984 83.096 31.5813 82.904 32.264 82.904C33.16 82.904 33.7787 83.1173 34.12 83.544C34.4613 84.0133 34.696 84.5467 34.824 85.144C34.9093 85.7413 35.0373 86.2533 35.208 86.68C35.336 87.1493 35.6773 87.384 36.232 87.384C36.7013 87.384 37.0853 87.0427 37.384 86.36C37.7253 85.72 38.0667 84.44 38.408 82.52C38.7493 80.6 39.1973 77.7627 39.752 74.008L43.016 51.416C43.1867 50.3493 43.208 49.5813 43.08 49.112C42.9947 48.6427 42.696 48.344 42.184 48.216C41.672 48.0453 40.8613 47.96 39.752 47.96C39.5813 47.96 39.496 47.8107 39.496 47.512C39.5387 47.2133 39.624 47.064 39.752 47.064C41.16 47.064 42.184 46.872 42.824 46.488C43.464 46.0613 43.8693 45.3147 44.04 44.248C44.68 40.3653 45.3627 37.144 46.088 34.584C46.856 32.024 47.752 30.0187 48.776 28.568C49.8427 27.0747 51.08 26.0293 52.488 25.432C53.9387 24.8347 55.6453 24.536 57.608 24.536C59.4 24.536 60.7653 24.8773 61.704 25.56C62.6853 26.2427 63.0907 27.0747 62.92 28.056C62.792 28.8667 62.4507 29.4853 61.896 29.912C61.384 30.296 60.7867 30.488 60.104 30.488C59.1227 30.488 58.44 30.2533 58.056 29.784C57.672 29.272 57.416 28.7173 57.288 28.12C57.2027 27.5227 57.0533 26.9893 56.84 26.52C56.6693 26.008 56.264 25.752 55.624 25.752C54.1307 25.752 52.8507 27.2027 51.784 30.104C50.76 33.0053 49.8213 37.272 48.968 42.904L44.68 72.344C44.0827 76.44 43.3573 79.6613 42.504 82.008C41.6507 84.3973 40.6053 86.0827 39.368 87.064C38.1307 88.088 36.552 88.6 34.632 88.6ZM53 49.24C52.8293 49.1973 52.3387 49.1333 51.528 49.048C50.7173 48.92 49.7787 48.792 48.712 48.664C47.6453 48.536 46.6 48.472 45.576 48.472L45.704 46.872C46.6853 46.872 47.7947 46.8293 49.032 46.744C50.312 46.6587 51.4853 46.5733 52.552 46.488C53.6187 46.4027 54.3227 46.36 54.664 46.36C54.8773 46.36 55.0053 46.4453 55.048 46.616C55.1333 46.744 55.1547 46.8933 55.112 47.064C55.0267 47.4053 54.7707 47.8533 54.344 48.408C53.9173 48.9627 53.4693 49.24 53 49.24Z" fill="white"/>
<path d="M56.784 82.704C54.9493 82.704 53.392 82.2773 52.112 81.424C50.832 80.5707 50.2773 79.5253 50.448 78.288C50.576 77.5627 50.8747 77.008 51.344 76.624C51.856 76.1973 52.4107 75.984 53.008 75.984C53.7333 75.984 54.288 76.24 54.672 76.752C55.0987 77.2213 55.4827 77.776 55.824 78.416C56.208 79.0133 56.656 79.568 57.168 80.08C57.7227 80.5493 58.4693 80.784 59.408 80.784C60.304 80.784 60.9867 80.5493 61.456 80.08C61.9253 79.568 62.2453 78.8 62.416 77.776C62.5867 76.4107 62.3733 75.2587 61.776 74.32C61.1787 73.3387 60.368 72.464 59.344 71.696C58.3627 70.928 57.4027 70.1387 56.464 69.328C55.5253 68.5173 54.7787 67.6213 54.224 66.64C53.6693 65.616 53.52 64.4213 53.776 63.056C53.9893 61.904 54.5227 60.8587 55.376 59.92C56.2293 58.9387 57.3173 58.1493 58.64 57.552C59.9627 56.9547 61.392 56.656 62.928 56.656C64.7627 56.656 66.2347 56.9973 67.344 57.68C68.4533 58.32 68.944 59.1733 68.816 60.24C68.7307 61.008 68.4107 61.6053 67.856 62.032C67.344 62.416 66.8107 62.608 66.256 62.608C65.4027 62.608 64.7627 62.3947 64.336 61.968C63.952 61.5413 63.632 61.0507 63.376 60.496C63.12 59.8987 62.7787 59.3867 62.352 58.96C61.968 58.5333 61.3067 58.32 60.368 58.32C59.5573 58.32 58.9387 58.5333 58.512 58.96C58.0853 59.3867 57.808 59.8987 57.68 60.496C57.4667 61.7333 57.6587 62.8213 58.256 63.76C58.8533 64.6987 59.6427 65.5733 60.624 66.384C61.648 67.152 62.6293 67.9627 63.568 68.816C64.5493 69.6693 65.3173 70.608 65.872 71.632C66.4693 72.656 66.6613 73.8507 66.448 75.216C66.2347 76.3253 65.68 77.4773 64.784 78.672C63.9307 79.824 62.8213 80.784 61.456 81.552C60.0907 82.32 58.5333 82.704 56.784 82.704Z" fill="white"/>
<path d="M132.55 37.4V58.8H159.65V69.55H132.55V99H119.05V26.7H164.65V37.4H132.55ZM186.443 47.7V99H174.043V47.7H186.443ZM188.143 32.75C188.143 33.8167 187.926 34.8167 187.493 35.75C187.06 36.6833 186.476 37.5 185.743 38.2C185.043 38.9 184.21 39.4667 183.243 39.9C182.276 40.3 181.243 40.5 180.143 40.5C179.076 40.5 178.06 40.3 177.093 39.9C176.16 39.4667 175.343 38.9 174.643 38.2C173.943 37.5 173.376 36.6833 172.943 35.75C172.543 34.8167 172.343 33.8167 172.343 32.75C172.343 31.65 172.543 30.6167 172.943 29.65C173.376 28.6833 173.943 27.85 174.643 27.15C175.343 26.45 176.16 25.9 177.093 25.5C178.06 25.0667 179.076 24.85 180.143 24.85C181.243 24.85 182.276 25.0667 183.243 25.5C184.21 25.9 185.043 26.45 185.743 27.15C186.476 27.85 187.06 28.6833 187.493 29.65C187.926 30.6167 188.143 31.65 188.143 32.75ZM210.684 56.6C212.284 53.5333 214.184 51.1333 216.384 49.4C218.584 47.6333 221.184 46.75 224.184 46.75C226.55 46.75 228.45 47.2667 229.884 48.3L229.084 57.55C228.917 58.15 228.667 58.5833 228.334 58.85C228.034 59.0833 227.617 59.2 227.084 59.2C226.584 59.2 225.834 59.1167 224.834 58.95C223.867 58.7833 222.917 58.7 221.984 58.7C220.617 58.7 219.4 58.9 218.334 59.3C217.267 59.7 216.3 60.2833 215.434 61.05C214.6 61.7833 213.85 62.6833 213.184 63.75C212.55 64.8167 211.95 66.0333 211.384 67.4V99H199.034V47.7H206.284C207.55 47.7 208.434 47.9333 208.934 48.4C209.434 48.8333 209.767 49.6333 209.934 50.8L210.684 56.6ZM267.443 57.7C267.11 58.2333 266.76 58.6167 266.393 58.85C266.026 59.05 265.56 59.15 264.993 59.15C264.393 59.15 263.743 58.9833 263.043 58.65C262.376 58.3167 261.593 57.95 260.693 57.55C259.793 57.1167 258.76 56.7333 257.593 56.4C256.46 56.0667 255.11 55.9 253.543 55.9C251.11 55.9 249.193 56.4167 247.793 57.45C246.426 58.4833 245.743 59.8333 245.743 61.5C245.743 62.6 246.093 63.5333 246.793 64.3C247.526 65.0333 248.476 65.6833 249.643 66.25C250.843 66.8167 252.193 67.3333 253.693 67.8C255.193 68.2333 256.71 68.7167 258.243 69.25C259.81 69.7833 261.343 70.4 262.843 71.1C264.343 71.7667 265.676 72.6333 266.843 73.7C268.043 74.7333 268.993 75.9833 269.693 77.45C270.426 78.9167 270.793 80.6833 270.793 82.75C270.793 85.2167 270.343 87.5 269.443 89.6C268.576 91.6667 267.276 93.4667 265.543 95C263.81 96.5 261.66 97.6833 259.093 98.55C256.56 99.3833 253.626 99.8 250.293 99.8C248.526 99.8 246.793 99.6333 245.093 99.3C243.426 99 241.81 98.5667 240.243 98C238.71 97.4333 237.276 96.7667 235.943 96C234.643 95.2333 233.493 94.4 232.493 93.5L235.343 88.8C235.71 88.2333 236.143 87.8 236.643 87.5C237.143 87.2 237.776 87.05 238.543 87.05C239.31 87.05 240.026 87.2667 240.693 87.7C241.393 88.1333 242.193 88.6 243.093 89.1C243.993 89.6 245.043 90.0667 246.243 90.5C247.476 90.9333 249.026 91.15 250.893 91.15C252.36 91.15 253.61 90.9833 254.643 90.65C255.71 90.2833 256.576 89.8167 257.243 89.25C257.943 88.6833 258.443 88.0333 258.743 87.3C259.076 86.5333 259.243 85.75 259.243 84.95C259.243 83.75 258.876 82.7667 258.143 82C257.443 81.2333 256.493 80.5667 255.293 80C254.126 79.4333 252.776 78.9333 251.243 78.5C249.743 78.0333 248.193 77.5333 246.593 77C245.026 76.4667 243.476 75.85 241.943 75.15C240.443 74.4167 239.093 73.5 237.893 72.4C236.726 71.3 235.776 69.95 235.043 68.35C234.343 66.75 233.993 64.8167 233.993 62.55C233.993 60.45 234.41 58.45 235.243 56.55C236.076 54.65 237.293 53 238.893 51.6C240.526 50.1667 242.543 49.0333 244.943 48.2C247.376 47.3333 250.176 46.9 253.343 46.9C256.876 46.9 260.093 47.4833 262.993 48.65C265.893 49.8167 268.31 51.35 270.243 53.25L267.443 57.7ZM297.188 99.8C292.722 99.8 289.288 98.55 286.888 96.05C284.522 93.5167 283.338 90.0333 283.338 85.6V56.95H278.088C277.422 56.95 276.855 56.7333 276.388 56.3C275.922 55.8667 275.688 55.2167 275.688 54.35V49.45L283.938 48.1L286.538 34.1C286.705 33.4333 287.022 32.9167 287.488 32.55C287.955 32.1833 288.555 32 289.288 32H295.688V48.15H309.388V56.95H295.688V84.75C295.688 86.35 296.072 87.6 296.838 88.5C297.638 89.4 298.722 89.85 300.088 89.85C300.855 89.85 301.488 89.7667 301.988 89.6C302.522 89.4 302.972 89.2 303.338 89C303.738 88.8 304.088 88.6167 304.388 88.45C304.688 88.25 304.988 88.15 305.288 88.15C305.655 88.15 305.955 88.25 306.188 88.45C306.422 88.6167 306.672 88.8833 306.938 89.25L310.638 95.25C308.838 96.75 306.772 97.8833 304.438 98.65C302.105 99.4167 299.688 99.8 297.188 99.8ZM357.745 39.85C357.345 40.55 356.912 41.0667 356.445 41.4C356.012 41.7 355.462 41.85 354.795 41.85C354.095 41.85 353.329 41.6 352.495 41.1C351.695 40.5667 350.729 39.9833 349.595 39.35C348.462 38.7167 347.129 38.15 345.595 37.65C344.095 37.1167 342.312 36.85 340.245 36.85C338.379 36.85 336.745 37.0833 335.345 37.55C333.945 37.9833 332.762 38.6 331.795 39.4C330.862 40.2 330.162 41.1667 329.695 42.3C329.229 43.4 328.995 44.6167 328.995 45.95C328.995 47.65 329.462 49.0667 330.395 50.2C331.362 51.3333 332.629 52.3 334.195 53.1C335.762 53.9 337.545 54.6167 339.545 55.25C341.545 55.8833 343.595 56.5667 345.695 57.3C347.795 58 349.845 58.8333 351.845 59.8C353.845 60.7333 355.629 61.9333 357.195 63.4C358.762 64.8333 360.012 66.6 360.945 68.7C361.912 70.8 362.395 73.35 362.395 76.35C362.395 79.6167 361.829 82.6833 360.695 85.55C359.595 88.3833 357.962 90.8667 355.795 93C353.662 95.1 351.045 96.7667 347.945 98C344.845 99.2 341.295 99.8 337.295 99.8C334.995 99.8 332.729 99.5667 330.495 99.1C328.262 98.6667 326.112 98.0333 324.045 97.2C322.012 96.3667 320.095 95.3667 318.295 94.2C316.495 93.0333 314.895 91.7333 313.495 90.3L317.445 83.85C317.779 83.3833 318.212 83 318.745 82.7C319.279 82.3667 319.845 82.2 320.445 82.2C321.279 82.2 322.179 82.55 323.145 83.25C324.112 83.9167 325.262 84.6667 326.595 85.5C327.929 86.3333 329.479 87.1 331.245 87.8C333.045 88.4667 335.195 88.8 337.695 88.8C341.529 88.8 344.495 87.9 346.595 86.1C348.695 84.2667 349.745 81.65 349.745 78.25C349.745 76.35 349.262 74.8 348.295 73.6C347.362 72.4 346.112 71.4 344.545 70.6C342.979 69.7667 341.195 69.0667 339.195 68.5C337.195 67.9333 335.162 67.3167 333.095 66.65C331.029 65.9833 328.995 65.1833 326.995 64.25C324.995 63.3167 323.212 62.1 321.645 60.6C320.079 59.1 318.812 57.2333 317.845 55C316.912 52.7333 316.445 49.95 316.445 46.65C316.445 44.0167 316.962 41.45 317.995 38.95C319.062 36.45 320.595 34.2333 322.595 32.3C324.595 30.3667 327.062 28.8167 329.995 27.65C332.929 26.4833 336.295 25.9 340.095 25.9C344.362 25.9 348.295 26.5667 351.895 27.9C355.495 29.2333 358.562 31.1 361.095 33.5L357.745 39.85ZM384.783 47.7V99H372.383V47.7H384.783ZM386.483 32.75C386.483 33.8167 386.266 34.8167 385.833 35.75C385.399 36.6833 384.816 37.5 384.083 38.2C383.383 38.9 382.549 39.4667 381.583 39.9C380.616 40.3 379.583 40.5 378.483 40.5C377.416 40.5 376.399 40.3 375.433 39.9C374.499 39.4667 373.683 38.9 372.983 38.2C372.283 37.5 371.716 36.6833 371.283 35.75C370.883 34.8167 370.683 33.8167 370.683 32.75C370.683 31.65 370.883 30.6167 371.283 29.65C371.716 28.6833 372.283 27.85 372.983 27.15C373.683 26.45 374.499 25.9 375.433 25.5C376.399 25.0667 377.416 24.85 378.483 24.85C379.583 24.85 380.616 25.0667 381.583 25.5C382.549 25.9 383.383 26.45 384.083 27.15C384.816 27.85 385.399 28.6833 385.833 29.65C386.266 30.6167 386.483 31.65 386.483 32.75ZM416.123 72.1C417.657 72.1 418.99 71.9 420.123 71.5C421.257 71.0667 422.19 70.4833 422.923 69.75C423.69 69.0167 424.257 68.1333 424.623 67.1C425.023 66.0667 425.223 64.9333 425.223 63.7C425.223 61.1667 424.457 59.1667 422.923 57.7C421.423 56.2 419.157 55.45 416.123 55.45C413.09 55.45 410.807 56.2 409.273 57.7C407.773 59.1667 407.023 61.1667 407.023 63.7C407.023 64.9 407.207 66.0167 407.573 67.05C407.973 68.0833 408.54 68.9833 409.273 69.75C410.04 70.4833 410.99 71.0667 412.123 71.5C413.29 71.9 414.623 72.1 416.123 72.1ZM430.073 101.3C430.073 100.3 429.773 99.4833 429.173 98.85C428.573 98.2167 427.757 97.7333 426.723 97.4C425.69 97.0333 424.473 96.7667 423.073 96.6C421.707 96.4333 420.24 96.3167 418.673 96.25C417.14 96.15 415.54 96.0667 413.873 96C412.24 95.9333 410.64 95.8 409.073 95.6C407.707 96.3667 406.59 97.2667 405.723 98.3C404.89 99.3333 404.473 100.533 404.473 101.9C404.473 102.8 404.69 103.633 405.123 104.4C405.59 105.2 406.307 105.883 407.273 106.45C408.273 107.017 409.557 107.45 411.123 107.75C412.69 108.083 414.607 108.25 416.873 108.25C419.173 108.25 421.157 108.067 422.823 107.7C424.49 107.367 425.857 106.883 426.923 106.25C428.023 105.65 428.823 104.917 429.323 104.05C429.823 103.217 430.073 102.3 430.073 101.3ZM442.373 49.45V54.05C442.373 55.5167 441.49 56.4167 439.723 56.75L435.123 57.6C435.823 59.3667 436.173 61.3 436.173 63.4C436.173 65.9333 435.657 68.2333 434.623 70.3C433.623 72.3333 432.223 74.0667 430.423 75.5C428.623 76.9333 426.49 78.05 424.023 78.85C421.59 79.6167 418.957 80 416.123 80C415.123 80 414.157 79.95 413.223 79.85C412.29 79.75 411.373 79.6167 410.473 79.45C408.873 80.4167 408.073 81.5 408.073 82.7C408.073 83.7333 408.54 84.5 409.473 85C410.44 85.4667 411.707 85.8 413.273 86C414.84 86.2 416.623 86.3333 418.623 86.4C420.623 86.4333 422.673 86.5333 424.773 86.7C426.873 86.8667 428.923 87.1667 430.923 87.6C432.923 88 434.707 88.65 436.273 89.55C437.84 90.45 439.09 91.6833 440.023 93.25C440.99 94.7833 441.473 96.7667 441.473 99.2C441.473 101.467 440.907 103.667 439.773 105.8C438.673 107.933 437.057 109.833 434.923 111.5C432.823 113.167 430.223 114.5 427.123 115.5C424.057 116.533 420.557 117.05 416.623 117.05C412.757 117.05 409.39 116.667 406.523 115.9C403.657 115.167 401.273 114.167 399.373 112.9C397.473 111.667 396.057 110.233 395.123 108.6C394.19 106.967 393.723 105.267 393.723 103.5C393.723 101.1 394.44 99.1 395.873 97.5C397.34 95.8667 399.34 94.5667 401.873 93.6C400.507 92.9 399.423 91.9667 398.623 90.8C397.823 89.6333 397.423 88.1 397.423 86.2C397.423 85.4333 397.557 84.65 397.823 83.85C398.123 83.0167 398.54 82.2 399.073 81.4C399.64 80.6 400.34 79.85 401.173 79.15C402.007 78.4167 402.99 77.7667 404.123 77.2C401.523 75.8 399.473 73.9333 397.973 71.6C396.507 69.2667 395.773 66.5333 395.773 63.4C395.773 60.8667 396.273 58.5833 397.273 56.55C398.307 54.4833 399.723 52.7333 401.523 51.3C403.357 49.8333 405.507 48.7167 407.973 47.95C410.473 47.1833 413.19 46.8 416.123 46.8C418.323 46.8 420.39 47.0333 422.323 47.5C424.257 47.9333 426.023 48.5833 427.623 49.45H442.373ZM461.755 54C462.789 52.9667 463.872 52.0167 465.005 51.15C466.172 50.25 467.389 49.5 468.655 48.9C469.955 48.2667 471.339 47.7833 472.805 47.45C474.272 47.0833 475.872 46.9 477.605 46.9C480.405 46.9 482.889 47.3833 485.055 48.35C487.222 49.2833 489.022 50.6167 490.455 52.35C491.922 54.05 493.022 56.1 493.755 58.5C494.522 60.8667 494.905 63.4833 494.905 66.35V99H482.555V66.35C482.555 63.2167 481.839 60.8 480.405 59.1C478.972 57.3667 476.789 56.5 473.855 56.5C471.722 56.5 469.722 56.9833 467.855 57.95C465.989 58.9167 464.222 60.2333 462.555 61.9V99H450.205V47.7H457.755C459.355 47.7 460.405 48.45 460.905 49.95L461.755 54ZM533.751 77.1C530.184 77.2667 527.184 77.5833 524.751 78.05C522.317 78.4833 520.367 79.05 518.901 79.75C517.434 80.45 516.384 81.2667 515.751 82.2C515.117 83.1333 514.801 84.15 514.801 85.25C514.801 87.4167 515.434 88.9667 516.701 89.9C518.001 90.8333 519.684 91.3 521.751 91.3C524.284 91.3 526.467 90.85 528.301 89.95C530.167 89.0167 531.984 87.6167 533.751 85.75V77.1ZM505.451 54.85C511.351 49.45 518.451 46.75 526.751 46.75C529.751 46.75 532.434 47.25 534.801 48.25C537.167 49.2167 539.167 50.5833 540.801 52.35C542.434 54.0833 543.667 56.1667 544.501 58.6C545.367 61.0333 545.801 63.7 545.801 66.6V99H540.201C539.034 99 538.134 98.8333 537.501 98.5C536.867 98.1333 536.367 97.4167 536.001 96.35L534.901 92.65C533.601 93.8167 532.334 94.85 531.101 95.75C529.867 96.6167 528.584 97.35 527.251 97.95C525.917 98.55 524.484 99 522.951 99.3C521.451 99.6333 519.784 99.8 517.951 99.8C515.784 99.8 513.784 99.5167 511.951 98.95C510.117 98.35 508.534 97.4667 507.201 96.3C505.867 95.1333 504.834 93.6833 504.101 91.95C503.367 90.2167 503.001 88.2 503.001 85.9C503.001 84.6 503.217 83.3167 503.651 82.05C504.084 80.75 504.784 79.5167 505.751 78.35C506.751 77.1833 508.034 76.0833 509.601 75.05C511.167 74.0167 513.084 73.1167 515.351 72.35C517.651 71.5833 520.317 70.9667 523.351 70.5C526.384 70 529.851 69.7 533.751 69.6V66.6C533.751 63.1667 533.017 60.6333 531.551 59C530.084 57.3333 527.967 56.5 525.201 56.5C523.201 56.5 521.534 56.7333 520.201 57.2C518.901 57.6667 517.751 58.2 516.751 58.8C515.751 59.3667 514.834 59.8833 514.001 60.35C513.201 60.8167 512.301 61.05 511.301 61.05C510.434 61.05 509.701 60.8333 509.101 60.4C508.501 59.9333 508.017 59.4 507.651 58.8L505.451 54.85ZM569.932 24.7V99H557.582V24.7H569.932ZM613.537 57.7C613.203 58.2333 612.853 58.6167 612.487 58.85C612.12 59.05 611.653 59.15 611.087 59.15C610.487 59.15 609.837 58.9833 609.137 58.65C608.47 58.3167 607.687 57.95 606.787 57.55C605.887 57.1167 604.853 56.7333 603.687 56.4C602.553 56.0667 601.203 55.9 599.637 55.9C597.203 55.9 595.287 56.4167 593.887 57.45C592.52 58.4833 591.837 59.8333 591.837 61.5C591.837 62.6 592.187 63.5333 592.887 64.3C593.62 65.0333 594.57 65.6833 595.737 66.25C596.937 66.8167 598.287 67.3333 599.787 67.8C601.287 68.2333 602.803 68.7167 604.337 69.25C605.903 69.7833 607.437 70.4 608.937 71.1C610.437 71.7667 611.77 72.6333 612.937 73.7C614.137 74.7333 615.087 75.9833 615.787 77.45C616.52 78.9167 616.887 80.6833 616.887 82.75C616.887 85.2167 616.437 87.5 615.537 89.6C614.67 91.6667 613.37 93.4667 611.637 95C609.903 96.5 607.753 97.6833 605.187 98.55C602.653 99.3833 599.72 99.8 596.387 99.8C594.62 99.8 592.887 99.6333 591.187 99.3C589.52 99 587.903 98.5667 586.337 98C584.803 97.4333 583.37 96.7667 582.037 96C580.737 95.2333 579.587 94.4 578.587 93.5L581.437 88.8C581.803 88.2333 582.237 87.8 582.737 87.5C583.237 87.2 583.87 87.05 584.637 87.05C585.403 87.05 586.12 87.2667 586.787 87.7C587.487 88.1333 588.287 88.6 589.187 89.1C590.087 89.6 591.137 90.0667 592.337 90.5C593.57 90.9333 595.12 91.15 596.987 91.15C598.453 91.15 599.703 90.9833 600.737 90.65C601.803 90.2833 602.67 89.8167 603.337 89.25C604.037 88.6833 604.537 88.0333 604.837 87.3C605.17 86.5333 605.337 85.75 605.337 84.95C605.337 83.75 604.97 82.7667 604.237 82C603.537 81.2333 602.587 80.5667 601.387 80C600.22 79.4333 598.87 78.9333 597.337 78.5C595.837 78.0333 594.287 77.5333 592.687 77C591.12 76.4667 589.57 75.85 588.037 75.15C586.537 74.4167 585.187 73.5 583.987 72.4C582.82 71.3 581.87 69.95 581.137 68.35C580.437 66.75 580.087 64.8167 580.087 62.55C580.087 60.45 580.503 58.45 581.337 56.55C582.17 54.65 583.387 53 584.987 51.6C586.62 50.1667 588.637 49.0333 591.037 48.2C593.47 47.3333 596.27 46.9 599.437 46.9C602.97 46.9 606.187 47.4833 609.087 48.65C611.987 49.8167 614.403 51.35 616.337 53.25L613.537 57.7Z" fill="#4C00FF"/>
</svg>
