<svg width="100" height="100" viewBox="0 0 100 100" fill="none" xmlns="http://www.w3.org/2000/svg">
<circle cx="50" cy="50" r="50" fill="#4C00FF"/>
<path d="M34.632 82.6C32.8827 82.6 31.56 82.2587 30.664 81.576C29.768 80.8933 29.384 80.1253 29.512 79.272C29.64 78.504 29.96 77.9067 30.472 77.48C30.984 77.096 31.5813 76.904 32.264 76.904C33.16 76.904 33.7787 77.1173 34.12 77.544C34.4613 78.0133 34.696 78.5467 34.824 79.144C34.9093 79.7413 35.0373 80.2533 35.208 80.68C35.336 81.1493 35.6773 81.384 36.232 81.384C36.7013 81.384 37.0853 81.0427 37.384 80.36C37.7253 79.72 38.0667 78.44 38.408 76.52C38.7493 74.6 39.1973 71.7627 39.752 68.008L43.016 45.416C43.1867 44.3493 43.208 43.5813 43.08 43.112C42.9947 42.6427 42.696 42.344 42.184 42.216C41.672 42.0453 40.8613 41.96 39.752 41.96C39.5813 41.96 39.496 41.8107 39.496 41.512C39.5387 41.2133 39.624 41.064 39.752 41.064C41.16 41.064 42.184 40.872 42.824 40.488C43.464 40.0613 43.8693 39.3147 44.04 38.248C44.68 34.3653 45.3627 31.144 46.088 28.584C46.856 26.024 47.752 24.0187 48.776 22.568C49.8427 21.0747 51.08 20.0293 52.488 19.432C53.9387 18.8347 55.6453 18.536 57.608 18.536C59.4 18.536 60.7653 18.8773 61.704 19.56C62.6853 20.2427 63.0907 21.0747 62.92 22.056C62.792 22.8667 62.4507 23.4853 61.896 23.912C61.384 24.296 60.7867 24.488 60.104 24.488C59.1227 24.488 58.44 24.2533 58.056 23.784C57.672 23.272 57.416 22.7173 57.288 22.12C57.2027 21.5227 57.0533 20.9893 56.84 20.52C56.6693 20.008 56.264 19.752 55.624 19.752C54.1307 19.752 52.8507 21.2027 51.784 24.104C50.76 27.0053 49.8213 31.272 48.968 36.904L44.68 66.344C44.0827 70.44 43.3573 73.6613 42.504 76.008C41.6507 78.3973 40.6053 80.0827 39.368 81.064C38.1307 82.088 36.552 82.6 34.632 82.6ZM53 43.24C52.8293 43.1973 52.3387 43.1333 51.528 43.048C50.7173 42.92 49.7787 42.792 48.712 42.664C47.6453 42.536 46.6 42.472 45.576 42.472L45.704 40.872C46.6853 40.872 47.7947 40.8293 49.032 40.744C50.312 40.6587 51.4853 40.5733 52.552 40.488C53.6187 40.4027 54.3227 40.36 54.664 40.36C54.8773 40.36 55.0053 40.4453 55.048 40.616C55.1333 40.744 55.1547 40.8933 55.112 41.064C55.0267 41.4053 54.7707 41.8533 54.344 42.408C53.9173 42.9627 53.4693 43.24 53 43.24Z" fill="white"/>
<path d="M56.784 76.704C54.9493 76.704 53.392 76.2773 52.112 75.424C50.832 74.5707 50.2773 73.5253 50.448 72.288C50.576 71.5627 50.8747 71.008 51.344 70.624C51.856 70.1973 52.4107 69.984 53.008 69.984C53.7333 69.984 54.288 70.24 54.672 70.752C55.0987 71.2213 55.4827 71.776 55.824 72.416C56.208 73.0133 56.656 73.568 57.168 74.08C57.7227 74.5493 58.4693 74.784 59.408 74.784C60.304 74.784 60.9867 74.5493 61.456 74.08C61.9253 73.568 62.2453 72.8 62.416 71.776C62.5867 70.4107 62.3733 69.2587 61.776 68.32C61.1787 67.3387 60.368 66.464 59.344 65.696C58.3627 64.928 57.4027 64.1387 56.464 63.328C55.5253 62.5173 54.7787 61.6213 54.224 60.64C53.6693 59.616 53.52 58.4213 53.776 57.056C53.9893 55.904 54.5227 54.8587 55.376 53.92C56.2293 52.9387 57.3173 52.1493 58.64 51.552C59.9627 50.9547 61.392 50.656 62.928 50.656C64.7627 50.656 66.2347 50.9973 67.344 51.68C68.4533 52.32 68.944 53.1733 68.816 54.24C68.7307 55.008 68.4107 55.6053 67.856 56.032C67.344 56.416 66.8107 56.608 66.256 56.608C65.4027 56.608 64.7627 56.3947 64.336 55.968C63.952 55.5413 63.632 55.0507 63.376 54.496C63.12 53.8987 62.7787 53.3867 62.352 52.96C61.968 52.5333 61.3067 52.32 60.368 52.32C59.5573 52.32 58.9387 52.5333 58.512 52.96C58.0853 53.3867 57.808 53.8987 57.68 54.496C57.4667 55.7333 57.6587 56.8213 58.256 57.76C58.8533 58.6987 59.6427 59.5733 60.624 60.384C61.648 61.152 62.6293 61.9627 63.568 62.816C64.5493 63.6693 65.3173 64.608 65.872 65.632C66.4693 66.656 66.6613 67.8507 66.448 69.216C66.2347 70.3253 65.68 71.4773 64.784 72.672C63.9307 73.824 62.8213 74.784 61.456 75.552C60.0907 76.32 58.5333 76.704 56.784 76.704Z" fill="white"/>
</svg>
